<?xml version="1.0" encoding="UTF-8" standalone="no"?>
<!-- Created with Inkscape (http://www.inkscape.org/) -->

<svg
   xmlns:dc="http://purl.org/dc/elements/1.1/"
   xmlns:cc="http://creativecommons.org/ns#"
   xmlns:rdf="http://www.w3.org/1999/02/22-rdf-syntax-ns#"
   xmlns:svg="http://www.w3.org/2000/svg"
   xmlns="http://www.w3.org/2000/svg"
   xmlns:xlink="http://www.w3.org/1999/xlink"
   xmlns:sodipodi="http://sodipodi.sourceforge.net/DTD/sodipodi-0.dtd"
   xmlns:inkscape="http://www.inkscape.org/namespaces/inkscape"
   width="720"
   height="168"
   viewBox="0 0 720.00001 168"
   id="svg2"
   version="1.1"
   inkscape:version="0.91 r13725"
   sodipodi:docname="ts-vs-haxe.svg"
   inkscape:export-filename="D:\BTSync\BTSync\ts-vs-haxe.png"
   inkscape:export-xdpi="90"
   inkscape:export-ydpi="90">
  <defs
     id="defs4">
    <radialGradient
       inkscape:collect="always"
       xlink:href="#linearGradient3530"
       id="radialGradient3536"
       cx="87.013428"
       cy="613.48029"
       fx="87.013428"
       fy="613.48029"
       r="76.5"
       gradientTransform="matrix(1.2142823,-3.7044998e-5,-2.3190496e-4,0.13700333,208.24318,771.36244)"
       gradientUnits="userSpaceOnUse" />
    <linearGradient
       inkscape:collect="always"
       id="linearGradient3530">
      <stop
         style="stop-color:#000000;stop-opacity:1;"
         offset="0"
         id="stop3532" />
      <stop
         style="stop-color:#000000;stop-opacity:0;"
         offset="1"
         id="stop3534" />
    </linearGradient>
    <radialGradient
       inkscape:collect="always"
       xlink:href="#linearGradient3530"
       id="radialGradient3536-6"
       cx="87.013428"
       cy="613.48029"
       fx="87.013428"
       fy="613.48029"
       r="76.5"
       gradientTransform="matrix(2.1656787,-6.0859641e-5,-4.1360369e-4,0.22507691,319.59866,717.36262)"
       gradientUnits="userSpaceOnUse" />
    <radialGradient
       inkscape:collect="always"
       xlink:href="#linearGradient3530"
       id="radialGradient3536-6-5"
       cx="87.013428"
       cy="613.48029"
       fx="87.013428"
       fy="613.48029"
       r="76.5"
       gradientTransform="matrix(2.1656787,-6.0859641e-5,-4.1360369e-4,0.22507691,-53.40134,717.36262)"
       gradientUnits="userSpaceOnUse" />
  </defs>
  <sodipodi:namedview
     id="base"
     pagecolor="#ffffff"
     bordercolor="#666666"
     borderopacity="1.0"
     inkscape:pageopacity="0.0"
     inkscape:pageshadow="2"
     inkscape:zoom="1"
     inkscape:cx="528.40065"
     inkscape:cy="-31.999996"
     inkscape:document-units="px"
     inkscape:current-layer="g3659"
     showgrid="false"
     units="px"
     inkscape:window-width="1920"
     inkscape:window-height="1017"
     inkscape:window-x="1912"
     inkscape:window-y="-8"
     inkscape:window-maximized="1"
     fit-margin-top="50"
     fit-margin-right="10"
     fit-margin-bottom="30"
     fit-margin-left="10" />
  <metadata
     id="metadata7">
    <rdf:RDF>
      <cc:Work
         rdf:about="">
        <dc:format>image/svg+xml</dc:format>
        <dc:type
           rdf:resource="http://purl.org/dc/dcmitype/StillImage" />
        <dc:title></dc:title>
      </cc:Work>
    </rdf:RDF>
  </metadata>
  <g
     inkscape:label="Layer 1"
     inkscape:groupmode="layer"
     id="layer1"
     transform="translate(46,-732.36216)">
    <g
       id="g3659"
       transform="translate(-9.5,0)">
      <rect
         style="opacity:0.1;fill:url(#radialGradient3536);fill-opacity:1"
         y="842.57959"
         x="218"
         height="25.565218"
         width="194"
         id="rect3520" />
      <rect
         style="opacity:0.15;fill:url(#radialGradient3536-6);fill-opacity:1"
         y="834.36218"
         x="337"
         height="42"
         width="346"
         id="rect3520-4" />
      <rect
         style="opacity:0.15;fill:url(#radialGradient3536-6-5);fill-opacity:1"
         y="834.36218"
         x="-36"
         height="42"
         width="346"
         id="rect3520-4-6" />
      <g
         style="fill:#007acc"
         transform="matrix(0.86256469,0,0,0.86256469,19.455,782.35353)"
         id="g3337">
        <path
           inkscape:connector-curvature="0"
           d="m 34.98,7.56 -14.55,0 0,45.07 -5.91,0 0,-45.07 -14.52,0 0,-5.35 34.98,0 0,5.35 z"
           id="path3339" />
        <path
           inkscape:connector-curvature="0"
           d="M 57.94,16.63 41.38,58.39 c -2.95,7.45 -7.1,11.18 -12.45,11.18 -1.5,0 -2.75,-0.15 -3.76,-0.46 l 0,-5.17 c 1.24,0.42 2.38,0.63 3.41,0.63 2.91,0 5.09,-1.73 6.54,-5.2 L 38,52.55 23.94,16.63 l 6.4,0 9.74,27.7 c 0.12,0.35 0.36,1.27 0.74,2.74 l 0.21,0 c 0.12,-0.56 0.35,-1.45 0.7,-2.67 l 10.23,-27.77 5.98,0 z"
           id="path3341" />
        <path
           inkscape:connector-curvature="0"
           d="m 67.37,47.43 -0.14,0 0,21.76 -5.77,0 0,-52.56 5.77,0 0,6.33 0.14,0 c 2.84,-4.78 6.98,-7.17 12.45,-7.17 4.64,0 8.26,1.61 10.86,4.83 2.6,3.22 3.9,7.54 3.9,12.96 0,6.02 -1.46,10.85 -4.39,14.47 -2.93,3.62 -6.94,5.43 -12.02,5.43 -4.67,-0.01 -8.27,-2.02 -10.8,-6.05 z m -0.14,-14.52 0,5.03 c 0,2.98 0.97,5.5 2.9,7.58 1.93,2.08 4.39,3.11 7.37,3.11 3.49,0 6.23,-1.34 8.21,-4.01 1.98,-2.67 2.97,-6.39 2.97,-11.14 0,-4.01 -0.93,-7.15 -2.78,-9.42 -1.85,-2.27 -4.36,-3.41 -7.52,-3.41 -3.35,0 -6.05,1.17 -8.09,3.5 -2.04,2.32 -3.06,5.24 -3.06,8.76 z"
           id="path3343" />
        <path
           inkscape:connector-curvature="0"
           d="m 129.56,36.07 -25.42,0 c 0.09,4.01 1.17,7.1 3.23,9.28 2.06,2.18 4.9,3.27 8.51,3.27 4.05,0 7.78,-1.34 11.18,-4.01 l 0,5.41 c -3.16,2.3 -7.35,3.45 -12.55,3.45 -5.09,0 -9.08,-1.63 -11.99,-4.9 -2.91,-3.27 -4.36,-7.87 -4.36,-13.8 0,-5.6 1.59,-10.17 4.76,-13.69 3.18,-3.53 7.12,-5.29 11.83,-5.29 4.71,0 8.35,1.52 10.93,4.57 2.58,3.05 3.87,7.28 3.87,12.69 l 0,3.02 z m -5.91,-4.89 c -0.02,-3.33 -0.83,-5.92 -2.41,-7.77 -1.58,-1.85 -3.78,-2.78 -6.59,-2.78 -2.72,0 -5.03,0.97 -6.93,2.92 -1.9,1.95 -3.07,4.49 -3.52,7.63 l 19.45,0 z"
           id="path3345" />
        <path
           inkscape:connector-curvature="0"
           d="m 134.6,50.59 0,-6.96 c 0.73,0.7 1.6,1.34 2.62,1.9 1.02,0.56 2.09,1.04 3.22,1.42 1.13,0.38 2.26,0.69 3.39,0.9 1.14,0.21 2.19,0.32 3.15,0.32 3.32,0 5.81,-0.67 7.45,-2.02 1.64,-1.35 2.46,-3.29 2.46,-5.82 0,-1.36 -0.27,-2.54 -0.82,-3.55 -0.55,-1.01 -1.3,-1.93 -2.27,-2.76 -0.97,-0.83 -2.11,-1.63 -3.43,-2.39 -1.32,-0.76 -2.74,-1.56 -4.26,-2.41 -1.61,-0.89 -3.11,-1.79 -4.5,-2.71 -1.39,-0.91 -2.61,-1.92 -3.63,-3.02 -1.03,-1.1 -1.84,-2.35 -2.43,-3.74 -0.59,-1.39 -0.88,-3.03 -0.88,-4.9 0,-2.3 0.46,-4.29 1.38,-5.99 0.92,-1.7 2.13,-3.1 3.64,-4.2 1.5,-1.1 3.21,-1.92 5.13,-2.46 1.92,-0.54 3.88,-0.81 5.87,-0.81 4.55,0 7.86,0.6 9.94,1.79 l 0,6.64 c -2.72,-2.06 -6.22,-3.09 -10.49,-3.09 -1.18,0 -2.36,0.14 -3.54,0.4 -1.18,0.27 -2.23,0.71 -3.15,1.32 -0.92,0.61 -1.67,1.39 -2.25,2.36 -0.58,0.96 -0.87,2.13 -0.87,3.52 0,1.29 0.22,2.4 0.66,3.34 0.44,0.94 1.09,1.79 1.95,2.57 0.86,0.77 1.9,1.52 3.14,2.25 1.23,0.73 2.65,1.52 4.26,2.39 1.65,0.89 3.22,1.83 4.7,2.81 1.48,0.98 2.78,2.07 3.89,3.27 1.11,1.2 2,2.52 2.65,3.97 0.65,1.45 0.98,3.12 0.98,4.99 0,2.48 -0.45,4.59 -1.33,6.31 -0.89,1.72 -2.09,3.12 -3.6,4.2 -1.51,1.08 -3.25,1.86 -5.23,2.34 -1.97,0.48 -4.05,0.72 -6.24,0.72 -0.73,0 -1.63,-0.06 -2.7,-0.19 -1.07,-0.13 -2.17,-0.32 -3.28,-0.56 -1.12,-0.25 -2.17,-0.55 -3.17,-0.91 -1.01,-0.39 -1.8,-0.8 -2.41,-1.24 z"
           id="path3347" />
        <path
           inkscape:connector-curvature="0"
           d="m 193.25,50.98 c -2.77,1.66 -6.05,2.5 -9.84,2.5 -5.13,0 -9.28,-1.67 -12.43,-5.01 -3.15,-3.34 -4.73,-7.67 -4.73,-12.99 0,-5.93 1.7,-10.69 5.1,-14.29 3.4,-3.6 7.93,-5.4 13.61,-5.4 3.16,0 5.95,0.59 8.37,1.76 l 0,5.91 c -2.67,-1.88 -5.53,-2.81 -8.58,-2.81 -3.68,0 -6.7,1.32 -9.05,3.96 -2.35,2.64 -3.53,6.1 -3.53,10.39 0,4.22 1.11,7.55 3.32,9.98 2.21,2.43 5.19,3.66 8.91,3.66 3.14,0 6.09,-1.04 8.86,-3.13 l 0,5.47 z"
           id="path3349" />
        <path
           inkscape:connector-curvature="0"
           d="m 215.56,22.46 c -1.01,-0.77 -2.46,-1.16 -4.36,-1.16 -2.46,0 -4.52,1.16 -6.17,3.48 -1.65,2.32 -2.48,5.48 -2.48,9.49 l 0,18.35 -5.77,0 0,-36 5.77,0 0,7.42 0.14,0 c 0.82,-2.53 2.07,-4.51 3.76,-5.92 1.69,-1.42 3.57,-2.13 5.66,-2.13 1.5,0 2.65,0.16 3.45,0.49 l 0,5.98 z"
           id="path3351" />
        <path
           inkscape:connector-curvature="0"
           d="m 222.18,7.49 c -1.03,0 -1.91,-0.35 -2.64,-1.05 -0.73,-0.7 -1.09,-1.59 -1.09,-2.67 0,-1.08 0.36,-1.97 1.09,-2.69 0.73,-0.71 1.61,-1.07 2.64,-1.07 1.05,0 1.95,0.36 2.69,1.07 0.74,0.72 1.11,1.61 1.11,2.69 0,1.03 -0.37,1.91 -1.11,2.64 -0.74,0.71 -1.64,1.08 -2.69,1.08 z m 2.81,45.14 -5.77,0 0,-36 5.77,0 0,36 z"
           id="path3353" />
        <path
           inkscape:connector-curvature="0"
           d="m 234.29,47.43 -0.14,0 0,21.76 -5.77,0 0,-52.56 5.77,0 0,6.33 0.14,0 c 2.84,-4.78 6.98,-7.17 12.45,-7.17 4.64,0 8.26,1.61 10.86,4.83 2.6,3.22 3.9,7.54 3.9,12.96 0,6.02 -1.46,10.85 -4.39,14.47 -2.93,3.62 -6.94,5.43 -12.02,5.43 -4.67,-0.01 -8.27,-2.02 -10.8,-6.05 z m -0.14,-14.52 0,5.03 c 0,2.98 0.97,5.5 2.9,7.58 1.93,2.08 4.39,3.11 7.37,3.11 3.49,0 6.23,-1.34 8.21,-4.01 1.98,-2.67 2.97,-6.39 2.97,-11.14 0,-4.01 -0.93,-7.15 -2.78,-9.42 -1.85,-2.27 -4.36,-3.41 -7.52,-3.41 -3.35,0 -6.05,1.17 -8.09,3.5 -2.04,2.32 -3.06,5.24 -3.06,8.76 z"
           id="path3355" />
        <path
           inkscape:connector-curvature="0"
           d="m 283.09,52.28 c -1.36,0.75 -3.15,1.12 -5.38,1.12 -6.3,0 -9.46,-3.52 -9.46,-10.55 l 0,-21.3 -6.19,0 0,-4.92 6.19,0 0,-8.79 5.77,-1.86 0,10.65 9.07,0 0,4.92 -9.07,0 0,20.28 c 0,2.41 0.41,4.14 1.23,5.17 0.82,1.03 2.18,1.55 4.08,1.55 1.45,0 2.71,-0.4 3.76,-1.2 l 0,4.93 z"
           id="path3357" />
      </g>
      <g
         transform="matrix(0.10698783,0,0,-0.10698783,477.12714,1006.8622)"
         id="g12">
        <g
           transform="matrix(1.1990127,0,0,1.1990127,-60.63198,1442.4921)"
           id="g3447">
          <path
             d="m -608.14466,473.93166 -160.7859,-160.78277 160.7859,-160.77908 160.77767,160.77908 -160.77767,160.78277"
             style="fill:#f68712;fill-opacity:1;fill-rule:nonzero;stroke:none"
             id="path14"
             inkscape:connector-curvature="0" />
          <path
             d="m -822.52346,527.52596 214.3788,-53.5943 -160.7859,-160.78277 -53.5929,214.37707"
             style="fill:#fab20b;fill-opacity:1;fill-rule:nonzero;stroke:none"
             id="path16"
             inkscape:connector-curvature="0" />
          <path
             d="m -393.76586,527.52596 -53.60113,-214.37707 -160.77767,160.78277 214.3788,53.5943"
             style="fill:#f47216;fill-opacity:1;fill-rule:nonzero;stroke:none"
             id="path18"
             inkscape:connector-curvature="0" />
          <path
             d="m -393.76586,98.775559 -214.3788,53.594251 160.77767,160.77908 53.60113,-214.373331"
             style="fill:#f25c19;fill-opacity:1;fill-rule:nonzero;stroke:none"
             id="path20"
             inkscape:connector-curvature="0" />
          <path
             d="m -822.52346,98.775559 53.5929,214.373331 160.7859,-160.77908 -214.3788,-53.594251"
             style="fill:#f89c0e;fill-opacity:1;fill-rule:nonzero;stroke:none"
             id="path22"
             inkscape:connector-curvature="0" />
          <path
             d="m -608.14466,473.93166 -214.3788,53.5943 107.1858,0 107.193,-53.5943"
             style="fill:#fbc707;fill-opacity:1;fill-rule:nonzero;stroke:none"
             id="path24"
             inkscape:connector-curvature="0" />
          <path
             d="m -608.14466,473.93166 214.3788,53.5943 -107.193,0 -107.1858,-53.5943"
             style="fill:#fbc707;fill-opacity:1;fill-rule:nonzero;stroke:none"
             id="path26"
             inkscape:connector-curvature="0" />
          <path
             d="m -608.14466,152.36981 214.3788,-53.594251 -107.193,0 -107.1858,53.594251"
             style="fill:#f68712;fill-opacity:1;fill-rule:nonzero;stroke:none"
             id="path28"
             inkscape:connector-curvature="0" />
          <path
             d="m -608.14466,152.36981 -214.3788,-53.594251 107.1858,0 107.193,53.594251"
             style="fill:#f25c19;fill-opacity:1;fill-rule:nonzero;stroke:none"
             id="path30"
             inkscape:connector-curvature="0" />
          <path
             d="m -768.93056,313.14889 -53.5929,-214.373331 0,107.185801 53.5929,107.18753"
             style="fill:#fff200;fill-opacity:1;fill-rule:nonzero;stroke:none"
             id="path32"
             inkscape:connector-curvature="0" />
          <path
             d="m -768.93056,313.14889 -53.5929,214.37707 0,-107.18514 53.5929,-107.19193"
             style="fill:#fff200;fill-opacity:1;fill-rule:nonzero;stroke:none"
             id="path34"
             inkscape:connector-curvature="0" />
          <path
             d="m -447.36699,313.14889 53.60113,214.37707 0,-107.18514 -53.60113,-107.19193"
             style="fill:#f1471d;fill-opacity:1;fill-rule:nonzero;stroke:none"
             id="path36"
             inkscape:connector-curvature="0" />
          <path
             d="m -447.36699,313.14889 53.60113,-214.373331 0,107.185801 -53.60113,107.18753"
             style="fill:#f1471d;fill-opacity:1;fill-rule:nonzero;stroke:none"
             id="path38"
             inkscape:connector-curvature="0" />
        </g>
        <g
           transform="translate(-457.99598,1584.2924)"
           id="g3462">
          <g
             transform="scale(1.477437,1.477437)"
             id="g3468">
            <path
               inkscape:connector-curvature="0"
               id="path40"
               style="fill:#4f4c4c;fill-opacity:1;fill-rule:nonzero;stroke:none"
               d="m 0,316.32 97.4805,0 0,-109.84 91.2495,0 0,109.84 97.481,0 0,-316.32 -97.481,0 0,125.371 -91.2495,0 L 97.4805,0 0,0 0,316.32" />
            <path
               inkscape:connector-curvature="0"
               id="path42"
               style="fill:#4f4c4c;fill-opacity:1;fill-rule:nonzero;stroke:none"
               d="m 500.703,113.02 -28.398,97.41 -0.879,0 -30.547,-97.41 59.824,0 z m -76.621,203.3 95.195,0 L 634.492,0 533.477,0 l -13.282,45.1719 -100.586,0 L 405.449,0 307.5,0 424.082,316.32" />
            <path
               inkscape:connector-curvature="0"
               id="path44"
               style="fill:#4f4c4c;fill-opacity:1;fill-rule:nonzero;stroke:none"
               d="m 739.98,168.352 -104.14,147.968 114.316,0 47.832,-85.929 46.992,85.929 108.086,0 L 851.641,167.461 964.57,0 847.188,0 793.145,94.3711 737.324,0 625.664,0 739.98,168.352" />
            <path
               inkscape:connector-curvature="0"
               id="path46"
               style="fill:#4f4c4c;fill-opacity:1;fill-rule:nonzero;stroke:none"
               d="m 984.551,316.32 261.839,0 0,-81.031 -164.36,0 0,-39.449 149.3,0 0,-75.36 -149.3,0 0,-39.4097 169.26,0 0,-81.0703 -266.739,0 0,316.32" />
          </g>
        </g>
      </g>
      <text
         sodipodi:linespacing="125%"
         id="text3516"
         y="826.50281"
         x="313.73825"
         style="font-style:normal;font-variant:normal;font-weight:normal;font-stretch:normal;font-size:40px;line-height:125%;font-family:SimHei;-inkscape-font-specification:SimHei;text-align:center;letter-spacing:0px;word-spacing:0px;text-anchor:middle;fill:#000000;fill-opacity:1;stroke:none;stroke-width:1px;stroke-linecap:butt;stroke-linejoin:miter;stroke-opacity:1"
         xml:space="preserve"><tspan
           style="font-style:normal;font-variant:normal;font-weight:normal;font-stretch:normal;font-family:SimHei;-inkscape-font-specification:SimHei"
           y="826.50281"
           x="313.73825"
           id="tspan3518"
           sodipodi:role="line">VS</tspan></text>
    </g>
  </g>
</svg>
